<svg xmlns="http://www.w3.org/2000/svg" width="25" height="25" viewBox="0 0 19.292 19.292">
  <path id="Icon_material-phone" data-name="Icon material-phone" d="M8.38,12.849a16.236,16.236,0,0,0,7.063,7.063L17.8,17.554a1.066,1.066,0,0,1,1.093-.257,12.226,12.226,0,0,0,3.826.611,1.075,1.075,0,0,1,1.072,1.072V22.72a1.075,1.075,0,0,1-1.072,1.072A18.219,18.219,0,0,1,4.5,5.572,1.075,1.075,0,0,1,5.572,4.5H9.323a1.075,1.075,0,0,1,1.072,1.072A12.176,12.176,0,0,0,11.006,9.4a1.076,1.076,0,0,1-.268,1.093Z" transform="translate(-4.5 -4.5)" fill="#FFFFFF"/>
</svg>
